<?xml version="1.0" standalone="no"?><!DOCTYPE svg PUBLIC "-//W3C//DTD SVG 1.1//EN" "http://www.w3.org/Graphics/SVG/1.1/DTD/svg11.dtd"><svg t="1748148946090" class="icon" viewBox="0 0 1024 1024" version="1.1" xmlns="http://www.w3.org/2000/svg" p-id="8582" xmlns:xlink="http://www.w3.org/1999/xlink" width="200" height="200"><path d="M600.8 1020s243.2-33.6 327.2-249.6c0 0-66.4 53.6-93.6 70.4-27.2 16.8 14.4-47.2 49.6-80.8 34.4-33.6 69.6-112 16-202.4-53.6-90.4-32-127.2-20.8-171.2 0 0-71.2 21.6-88.8 67.2-17.6 45.6-30.4 84-32 31.2-0.8-52.8-48.8-187.2-79.2-248C648 176.8 633.6 89.6 698.4 0c0 0-240 44-316 219.2-75.2 174.4-78.4 241.6-96.8 170.4-17.6-71.2 10.4-85.6-56 9.6-66.4 95.2-101.6 221.6-60.8 353.6 0 0-38.4 4-72.8-36 0 0 8.8 249.6 349.6 302.4l155.2 0.8z" fill="#FF3600" p-id="8583"></path><path d="M260 523.2c28 9.6 52 26.4 69.6 48.8 18.4 24 24.8 50.4 28.8 78.4 12 86.4 76.8 126.4 76.8 126.4-45.6-41.6-60.8-80.8-64.8-136.8-5.6-79.2 12-136 50.4-203.2 46.4-81.6 132-147.2 218.4-184-68.8 48-89.6 125.6-63.2 213.6C612.8 551.2 660 600 704.8 684.8c24 52 52.8 108 25.6 188-13.6 40.8-56.8 93.6-122.4 120 16.8-15.2 33.6-40 36-80v-19.2C636.8 797.6 542.4 744 542.4 744s4.8 42.4-10.4 85.6c-15.2 41.6-34.4 73.6-26.4 120 0 0-15.2-22.4-36.8-31.2-22.4-9.6-37.6-14.4-42.4-38.4 0 0-19.2 35.2-11.2 78.4 2.4 14.4 8.8 29.6 19.2 44.8l1.6 1.6c-108-19.2-168-86.4-182.4-116.8-27.2-55.2-24.8-117.6 9.6-186.4 19.2-36.8 61.6-140-3.2-178.4z" fill="#FFDA40" p-id="8584"></path><path d="M416.8 1014.4s-51.2-88.8-3.2-189.6c0 0-18.4 51.2 54.4 78.4 14.4 4 33.6 22.4 41.6 38.4 0 0-24.8-41.6 21.6-135.2 47.2-93.6 4-150.4 4-150.4s269.6 163.2 110.4 344c0 0-50.4 42.4-228.8 14.4z" fill="#FF3600" p-id="8585"></path></svg>