<?xml version="1.0" standalone="no"?><!DOCTYPE svg PUBLIC "-//W3C//DTD SVG 1.1//EN" "http://www.w3.org/Graphics/SVG/1.1/DTD/svg11.dtd"><svg t="1748149617655" class="icon" viewBox="0 0 1039 1024" version="1.1" xmlns="http://www.w3.org/2000/svg" p-id="1485" xmlns:xlink="http://www.w3.org/1999/xlink" width="202.9296875" height="200"><path d="M790.659134 944.934087h-539.962336c-84.851224 0-154.274953-69.423729-154.274952-154.274953v-539.962336c0-84.851224 69.423729-154.274953 154.274952-154.274952h539.962336c84.851224 0 154.274953 69.423729 154.274953 154.274952v539.962336c0 84.851224-69.423729 154.274953-154.274953 154.274953z m-539.962336-771.374765c-42.425612 0-77.137476 34.711864-77.137476 77.137476v539.962336c0 42.425612 34.711864 77.137476 77.137476 77.137476h539.962336c42.425612 0 77.137476-34.711864 77.137476-77.137476v-539.962336c0-42.425612-34.711864-77.137476-77.137476-77.137476h-539.962336z" fill="#388CEB" p-id="1486"></path><path d="M308.549906 327.834275m-57.853108 0a57.853107 57.853107 0 1 0 115.706215 0 57.853107 57.853107 0 1 0-115.706215 0Z" fill="#E78E00" p-id="1487"></path><path d="M244.911488 765.589454c-9.642185 0-17.355932-3.856874-25.06968-9.642185-15.427495-13.499058-19.284369-38.568738-3.856874-53.996233 65.566855-77.137476 79.065913-96.421846 80.99435-98.350283 1.928437-1.928437 3.856874-5.785311 5.785311-7.713747 30.854991-30.854991 79.065913-30.854991 109.920904 0l15.427495 15.427495c11.570621 13.499058 30.854991 36.640301 65.566855 79.065913 13.499058 17.355932 11.570621 40.497175-5.78531 53.996234-17.355932 13.499058-40.497175 11.570621-53.996234-5.785311-48.210923-59.781544-65.566855-80.99435-71.352166-88.708098l-1.928437-1.928437c-11.570621 15.427495-34.711864 42.425612-82.922787 100.27872-11.570621 13.499058-21.212806 17.355932-32.783427 17.355932z" fill="#E78E00" p-id="1488"></path><path d="M462.824859 755.947269c-7.713748 0-13.499058-1.928437-21.212806-5.78531-17.355932-11.570621-23.141243-34.711864-11.570622-53.996234l117.634652-188.986817c1.928437-1.928437 3.856874-3.856874 5.785311-7.713748 30.854991-30.854991 79.065913-30.854991 109.920904 0 25.06968 23.141243 106.06403 115.706215 171.630885 192.843691 13.499058 15.427495 11.570621 40.497175-3.856874 53.996234-15.427495 13.499058-40.497175 11.570621-53.996234-3.856874-134.990584-156.20339-161.988701-181.27307-165.845574-185.129944l-1.928437-1.928436-113.777778 183.201506c-7.713748 11.570621-21.212806 17.355932-32.783427 17.355932z" fill="#E78E00" p-id="1489"></path></svg>