<?xml version="1.0" standalone="no"?><!DOCTYPE svg PUBLIC "-//W3C//DTD SVG 1.1//EN" "http://www.w3.org/Graphics/SVG/1.1/DTD/svg11.dtd"><svg t="1748150169825" class="icon" viewBox="0 0 1024 1024" version="1.1" xmlns="http://www.w3.org/2000/svg" p-id="16575" xmlns:xlink="http://www.w3.org/1999/xlink" width="200" height="200"><path d="M512 512m-512 0a512 512 0 1 0 1024 0 512 512 0 1 0-1024 0Z" fill="#FFFFFF" p-id="16576"></path><path d="M512 96.533333m-50.826667 0a50.826667 50.826667 0 1 0 101.653334 0 50.826667 50.826667 0 1 0-101.653334 0Z" fill="#FA759E" p-id="16577"></path><path d="M512 158.053333c-33.92 0-61.493333-27.6-61.493333-61.493333S478.08 35.04 512 35.04s61.493333 27.6 61.493333 61.493333S545.92 158.053333 512 158.053333z m0-101.68c-22.16 0-40.16 18.026667-40.16 40.16S489.866667 136.693333 512 136.693333c22.16 0 40.16-18.026667 40.16-40.16S534.16 56.373333 512 56.373333z" fill="#2B2E63" p-id="16578"></path><path d="M501.333333 147.386667h21.333334v53.546666h-21.333334z" fill="#2B2E63" p-id="16579"></path><path d="M571.946667 246.32c0-25.066667-26.853333-45.386667-59.946667-45.386667s-59.946667 20.32-59.946667 45.386667" fill="#0089EF" p-id="16580"></path><path d="M593.493333 250.533333h-21.333333c0-23.68-26.986667-42.96-60.16-42.96s-60.16 19.28-60.16 42.96h-21.333333c0-35.466667 36.56-64.293333 81.493333-64.293333s81.493333 28.853333 81.493333 64.293333z" fill="#2B2E63" p-id="16581"></path><path d="M137.6 702.48c-50.133333 0-90.773333-53.68-90.773333-119.893333S87.466667 462.666667 137.6 462.666667M886.4 702.48c50.133333 0 90.773333-53.68 90.773333-119.893333S936.533333 462.666667 886.4 462.666667" fill="#0089EF" p-id="16582"></path><path d="M674.746667 916.96H349.253333c-116.4 0-211.653333-95.253333-211.653333-211.653333v-196.453334c0-116.4 95.253333-211.653333 211.653333-211.653333h325.493334c116.4 0 211.653333 95.253333 211.653333 211.653333v196.453334c0 116.426667-95.253333 211.653333-211.653333 211.653333z" fill="#6DC9F7" p-id="16583"></path><path d="M137.6 713.146667c-55.946667 0-101.44-58.56-101.44-130.56s45.52-130.56 101.44-130.56v21.333333c-44.186667 0-80.106667 49.013333-80.106667 109.226667 0 60.24 35.946667 109.226667 80.106667 109.226666v21.333334zM886.4 713.146667v-21.333334c44.186667 0 80.106667-49.013333 80.106667-109.226666 0-60.24-35.946667-109.226667-80.106667-109.226667v-21.333333c55.946667 0 101.44 58.56 101.44 130.56 0 71.973333-45.493333 130.56-101.44 130.56z" fill="#2B2E63" p-id="16584"></path><path d="M644.693333 927.626667h-265.413333c-139.146667 0-252.373333-113.2-252.373333-252.373334v-183.04c0-139.146667 113.2-252.373333 252.373333-252.373333h265.413333c139.146667 0 252.373333 113.2 252.373334 252.373333v183.04c0 139.173333-113.2 252.373333-252.373334 252.373334zM379.306667 261.2c-127.386667 0-231.04 103.653333-231.04 231.04v183.04c0 127.386667 103.653333 231.04 231.04 231.04h265.413333c127.386667 0 231.04-103.653333 231.04-231.04v-183.04c0-127.386667-103.653333-231.04-231.04-231.04h-265.413333z" fill="#2B2E63" p-id="16585"></path><path d="M615.173333 786.8h-206.346666c-87.36 0-158.853333-71.493333-158.853334-158.853333v-89.92c0-87.36 71.493333-158.853333 158.853334-158.853334h206.346666c87.36 0 158.853333 71.493333 158.853334 158.853334v89.92c0 87.386667-71.493333 158.853333-158.853334 158.853333z" fill="#FFD7E5" p-id="16586"></path><path d="M390.16 525.546667m-42.4 0a42.4 42.4 0 1 0 84.8 0 42.4 42.4 0 1 0-84.8 0Z" fill="#2B2E63" p-id="16587"></path><path d="M633.84 525.546667m-42.4 0a42.4 42.4 0 1 0 84.8 0 42.4 42.4 0 1 0-84.8 0Z" fill="#2B2E63" p-id="16588"></path><path d="M512 690.373333c-30.693333 0-58.373333-12.88-74.08-34.453333-3.466667-4.773333-2.4-11.44 2.346667-14.906667 4.773333-3.466667 11.44-2.4 14.906666 2.346667 11.493333 15.84 33.28 25.653333 56.8 25.653333s45.306667-9.84 56.8-25.653333c3.466667-4.773333 10.133333-5.813333 14.906667-2.346667 4.773333 3.466667 5.813333 10.133333 2.346667 14.906667-15.653333 21.573333-43.333333 34.453333-74.026667 34.453333z" fill="#2B2E63" p-id="16589"></path></svg>